<?xml version="1.0" encoding="UTF-8" standalone="no"?>
<svg
   width="64"
   height="64"
   viewBox="0 0 64 64"
   fill="none"
   version="1.1"
   id="svg7782"
   sodipodi:docname="default-app-icon.svg"
   inkscape:version="1.2.2 (b0a8486541, 2022-12-01)"
   xmlns:inkscape="http://www.inkscape.org/namespaces/inkscape"
   xmlns:sodipodi="http://sodipodi.sourceforge.net/DTD/sodipodi-0.dtd"
   xmlns="http://www.w3.org/2000/svg"
   xmlns:svg="http://www.w3.org/2000/svg">
  <defs
     id="defs7786" />
  <sodipodi:namedview
     id="namedview7784"
     pagecolor="#ffffff"
     bordercolor="#666666"
     borderopacity="1.0"
     inkscape:showpageshadow="2"
     inkscape:pageopacity="0.0"
     inkscape:pagecheckerboard="0"
     inkscape:deskcolor="#d1d1d1"
     showgrid="false"
     inkscape:zoom="6.5215521"
     inkscape:cx="5.136814"
     inkscape:cy="32.737605"
     inkscape:window-width="1920"
     inkscape:window-height="1093"
     inkscape:window-x="0"
     inkscape:window-y="32"
     inkscape:window-maximized="1"
     inkscape:current-layer="svg7782" />
  <rect
     width="64"
     height="64"
     rx="12"
     fill="#4F46E5"
     id="rect7772"
     style="fill:#ffffff" />
  <path
     style="fill:#294885;fill-opacity:1;stroke-width:0.0932566"
     d="m 29.602918,34.385913 c -0.118561,-0.927654 -0.726688,-3.383665 -1.171879,-4.732777 -0.24542,-0.74372 -0.823076,-2.234218 -1.283688,-3.312214 -1.02995,-2.410441 -1.715843,-4.41451 -1.994268,-5.826947 -0.292429,-1.483474 -0.294076,-3.554756 -0.0036,-4.911307 0.553958,-2.58975 1.637188,-4.857008 3.512551,-7.3519529 0.782038,-1.0403948 2.292933,-2.6518803 2.998715,-3.1983424 l 0.386984,-0.2996316 0.871982,0.7798469 c 0.979876,0.8763282 1.111353,1.018179 2.215818,2.390459 1.931801,2.400232 3.22489,5.03271 3.802717,7.741579 0.263498,1.235319 0.238927,3.743559 -0.04933,5.035868 -0.306061,1.372065 -0.904938,3.134222 -1.695631,4.98923 -0.371664,0.871954 -0.863556,2.088951 -1.093096,2.704445 -0.451413,1.210426 -1.15083,3.859184 -1.377585,5.217052 -0.07757,0.464551 -0.162191,0.93906 -0.188037,1.054464 l -0.04697,0.20983 h -2.410885 -2.410885 l -0.06257,-0.489602 z"
     id="path406" />
  <path
     style="fill:#3979b5;fill-opacity:1;stroke-width:0.0932566"
     d="m 48.29281,36.046656 c 0,-0.01618 0.144336,-0.269153 0.320745,-0.562112 0.359994,-0.597825 0.477452,-1.221924 0.401683,-2.134307 -0.09729,-1.171535 -0.897627,-2.334028 -1.964154,-2.852948 -2.58655,-1.25848 -5.545773,0.270572 -7.255086,3.748742 l -0.309354,0.629484 h -1.648686 -1.648686 l 0.08248,-0.34972 c 0.92222,-3.910346 1.61669,-5.700231 3.048451,-7.856876 1.848042,-2.783679 4.147354,-4.675931 6.520279,-5.365969 3.918487,-1.139475 7.847512,0.995469 9.188712,4.992946 0.285012,0.849494 0.297219,0.947307 0.296625,2.378044 -7.16e-4,1.373583 -0.02062,1.551368 -0.252329,2.238163 -0.867293,2.570591 -3.060558,4.547239 -5.52171,4.97635 -0.743806,0.129687 -1.258967,0.194423 -1.258967,0.158203 z"
     id="path404" />
  <path
     style="fill:#3979b5;fill-opacity:1;stroke-width:0.0932566"
     d="M 15.00016,35.981598 C 14.142733,35.895863 13.005391,35.532963 12.218185,35.093936 11.016107,34.423522 9.6942085,32.899898 9.2136137,31.630858 8.6656984,30.184033 8.5226805,28.374745 8.8420651,26.930463 9.3288957,24.72895 10.871077,22.716948 12.796206,21.771696 c 1.222331,-0.60018 1.837718,-0.741007 3.22978,-0.739131 2.447011,0.0036 4.290357,0.851513 6.422838,2.955471 2.512958,2.479351 4.184375,5.61053 5.148615,9.645265 0.149683,0.626341 0.272153,1.162071 0.272153,1.190508 0,0.02842 -0.733546,0.05169 -1.6301,0.05169 h -1.630093 l -0.200108,-0.396341 c -0.842241,-1.668253 -2.399372,-3.394097 -3.559273,-3.944927 -1.448729,-0.688005 -2.990954,-0.628631 -4.172891,0.16063 -0.952778,0.636242 -1.520854,1.593523 -1.643826,2.770055 -0.07081,0.677588 0.156893,1.603188 0.524089,2.130312 0.1507,0.216338 0.244346,0.407497 0.208098,0.424815 -0.03623,0.01733 -0.380642,8e-6 -0.765328,-0.03845 z"
     id="path402" />
  <path
     style="fill:#f9b200;fill-opacity:1;stroke-width:0.0932566"
     d="m 25.483765,59.223283 c -0.112339,-0.112353 -0.02613,-1.626914 0.107228,-1.884884 0.164955,-0.318977 0.623713,-0.547558 1.098945,-0.547558 0.293231,0 0.338236,-0.04045 0.568227,-0.510514 0.293625,-0.600144 0.731807,-0.998705 1.591833,-1.447877 0.343727,-0.179517 0.701801,-0.423197 0.795726,-0.541508 0.238698,-0.300655 0.426913,-0.92338 0.636028,-2.10428 0.178815,-1.009823 0.178793,-1.013976 -0.0064,-1.062353 -0.771993,-0.201883 -2.356494,-1.201318 -3.053749,-1.926187 -0.284683,-0.295952 -0.3752,-0.334334 -0.792684,-0.336124 -0.259217,-7.16e-4 -0.832097,-0.08181 -1.273071,-0.179338 -3.778669,-0.835712 -6.072904,-3.980938 -6.160651,-8.445786 -0.0169,-0.860413 0.0043,-1.012846 0.170925,-1.236315 l 0.190221,-0.254892 1.971729,-0.02513 1.971729,-0.0252 v -0.837459 -0.837452 h 8.719508 8.719501 v 0.839306 0.839314 h 2.005014 c 2.494615,0 2.378052,-0.06458 2.378052,1.316937 0,1.857163 -0.406645,3.630167 -1.1284,4.919919 -1.229376,2.196874 -3.59124,3.689218 -6.175363,3.90192 l -0.669691,0.05513 -0.664085,0.615028 c -0.723058,0.669634 -1.414872,1.120452 -2.224145,1.449366 -0.285964,0.116227 -0.537154,0.228538 -0.558203,0.249587 -0.06415,0.06415 0.286938,1.978717 0.456338,2.488751 0.180699,0.544021 0.477352,0.832512 1.264852,1.230043 0.746663,0.376911 1.044046,0.654033 1.381731,1.28759 l 0.293739,0.551123 0.537806,0.05506 c 0.44716,0.04575 0.581572,0.103884 0.797567,0.344786 0.250653,0.279564 0.258837,0.320781 0.233141,1.174306 l -0.02663,0.884576 -6.559069,0.01947 c -3.607486,0.01074 -6.576545,0.0021 -6.597916,-0.01933 z M 25.191229,46.415659 C 24.353376,45.502825 23.578784,43.27349 23.344425,41.100393 l -0.05785,-0.536224 h -1.15461 -1.154596 l 0.05126,0.489602 c 0.289587,2.765344 1.692445,4.7301 3.944876,5.524931 0.411613,0.145245 0.464378,0.105724 0.217698,-0.163043 z m 14.661852,-0.138944 c 1.800975,-0.906791 3.008422,-2.81357 3.189271,-5.036432 l 0.05499,-0.676114 h -1.172459 -1.172459 l -0.05749,0.536224 c -0.238461,2.224588 -0.810926,3.970944 -1.666327,5.083299 -0.187693,0.244081 -0.341257,0.461021 -0.341257,0.482084 0,0.07703 0.711939,-0.160587 1.165707,-0.389061 z"
     id="path248" />
</svg>
